<svg width="21" height="20" viewBox="0 0 21 20" fill="none" xmlns="http://www.w3.org/2000/svg">
<g clip-path="url(#clip0_14_678)">
<path d="M11.7119 9.99952L5.09054 3.37812C4.71667 3.00425 4.51073 2.50714 4.51073 1.97847C4.51073 1.44976 4.71663 0.952686 5.09054 0.578818C5.86233 -0.1929 7.11804 -0.192979 7.88983 0.578818L15.9109 8.59991C16.6827 9.37167 16.6827 10.6274 15.9109 11.3992L7.88983 19.4203C7.51597 19.7941 7.01893 20 6.49022 20C5.96151 20 5.46444 19.7941 5.09058 19.4203C4.71671 19.0464 4.51077 18.5494 4.51077 18.0207C4.51077 17.4919 4.71667 16.9949 5.09058 16.621L11.7119 9.99952ZM5.65405 18.8568C5.87737 19.0801 6.1744 19.2032 6.49022 19.2032C6.80604 19.2032 7.10304 19.0801 7.32636 18.8568L15.3475 10.8357C15.8085 10.3746 15.8085 9.6244 15.3475 9.16335L7.32632 1.14226C7.09581 0.911748 6.793 0.796436 6.49018 0.796436C6.18737 0.796436 5.88452 0.911748 5.65405 1.14229C5.43069 1.36565 5.30765 1.66261 5.30765 1.97847C5.30765 2.29433 5.43069 2.59132 5.65405 2.81468L12.5571 9.7178C12.7127 9.87343 12.7127 10.1257 12.5571 10.2813L5.65405 17.1844C5.43069 17.4078 5.30765 17.7048 5.30765 18.0206C5.30768 18.3364 5.43069 18.6334 5.65405 18.8568Z" fill="#00B634"/>
<path d="M13.6445 8.57367C13.799 8.41688 14.0513 8.41512 14.208 8.56957L14.7645 9.11813C14.9213 9.27258 14.9231 9.52489 14.7686 9.68157C14.6907 9.76067 14.5877 9.80028 14.4848 9.80028C14.3838 9.80028 14.2828 9.76211 14.2052 9.68567L13.6486 9.13711C13.4919 8.98266 13.49 8.73039 13.6445 8.57367Z" fill="#00B634"/>
<path d="M6.44897 1.47243C6.60346 1.31567 6.8558 1.31395 7.0124 1.46837L13.1625 7.5302C13.3192 7.68466 13.321 7.93696 13.1666 8.09364C13.0886 8.17274 12.9857 8.21235 12.8828 8.21235C12.7818 8.21235 12.6808 8.17419 12.6031 8.0977L6.45307 2.03591C6.29631 1.88141 6.29447 1.62919 6.44897 1.47243Z" fill="#00B634"/>
</g>
<defs>
<clipPath id="clip0_14_678">
<rect width="20" height="20" fill="white" transform="matrix(-1 0 0 1 20.5 0)"/>
</clipPath>
</defs>
</svg>
