<svg width="24" height="24" viewBox="0 0 24 24" fill="none" xmlns="http://www.w3.org/2000/svg">
<g clip-path="url(#clip0_9_259)">
<path d="M21.6562 1.45312H19.5938V0.480469C19.5938 0.222187 19.3833 0.0117188 19.125 0.0117188C18.8667 0.0117188 18.6562 0.222187 18.6562 0.480469V1.45312H14.8359V0.46875C14.8359 0.210469 14.6255 0 14.3672 0C14.1089 0 13.8984 0.210469 13.8984 0.46875V1.45312H10.1016V0.46875C10.1016 0.210469 9.89109 0 9.63281 0C9.37453 0 9.16406 0.210469 9.16406 0.46875V1.45312H5.34797V0.480469C5.34797 0.222187 5.1375 0.0117188 4.87922 0.0117188C4.62047 0.0117188 4.41047 0.222187 4.41047 0.480469V1.45312H2.34375C1.05141 1.45312 0 2.50453 0 3.79688V21.6562C0 22.9486 1.05141 24 2.34375 24H21.6562C22.9486 24 24 22.9486 24 21.6562V3.79688C24 2.50453 22.9486 1.45312 21.6562 1.45312ZM23.0625 21.6562C23.0625 22.4317 22.4317 23.0625 21.6562 23.0625H2.34375C1.56834 23.0625 0.9375 22.4317 0.9375 21.6562V9.46875H23.0625V21.6562ZM23.0625 8.53125H0.9375V7.59375H23.0625V8.53125ZM23.0625 6.65625H0.9375V3.79688C0.9375 3.02147 1.56834 2.39062 2.34375 2.39062H4.41047V3.29297C4.41047 3.55125 4.62047 3.76172 4.87922 3.76172C5.1375 3.76172 5.34797 3.55125 5.34797 3.29297V2.39062H9.16406V3.28125C9.16406 3.53953 9.37453 3.75 9.63281 3.75C9.89109 3.75 10.1016 3.53953 10.1016 3.28125V2.39062H13.8984V3.28125C13.8984 3.53953 14.1089 3.75 14.3672 3.75C14.6255 3.75 14.8359 3.53953 14.8359 3.28125V2.39062H18.6562V3.29297C18.6562 3.55125 18.8667 3.76172 19.125 3.76172C19.3833 3.76172 19.5938 3.55125 19.5938 3.29297V2.39062H21.6562C22.4317 2.39062 23.0625 3.02147 23.0625 3.79688V6.65625Z" fill="#4B4B4B"/>
<path d="M19.125 4.69922C18.8667 4.69922 18.6562 4.90969 18.6562 5.16797C18.6562 5.42672 18.8667 5.63672 19.125 5.63672C19.3833 5.63672 19.5938 5.42672 19.5938 5.16797C19.5938 4.90969 19.3833 4.69922 19.125 4.69922Z" fill="#4B4B4B"/>
<path d="M14.3672 4.6875C14.1089 4.6875 13.8984 4.89797 13.8984 5.15625C13.8984 5.41453 14.1089 5.625 14.3672 5.625C14.6255 5.625 14.8359 5.41453 14.8359 5.15625C14.8359 4.89797 14.6255 4.6875 14.3672 4.6875Z" fill="#4B4B4B"/>
<path d="M9.63281 4.6875C9.37453 4.6875 9.16406 4.89797 9.16406 5.15625C9.16406 5.41453 9.37453 5.625 9.63281 5.625C9.89109 5.625 10.1016 5.41453 10.1016 5.15625C10.1016 4.89797 9.89109 4.6875 9.63281 4.6875Z" fill="#4B4B4B"/>
<path d="M4.87939 4.69922C4.62064 4.69922 4.41064 4.90969 4.41064 5.16797C4.41064 5.42625 4.62064 5.63672 4.87939 5.63672C5.13768 5.63672 5.34814 5.42625 5.34814 5.16797C5.34814 4.90969 5.13768 4.69922 4.87939 4.69922Z" fill="#4B4B4B"/>
<path d="M3.375 15.1875H7.125C7.38389 15.1875 7.59375 14.9776 7.59375 14.7188V10.9688C7.59375 10.7099 7.38389 10.5 7.125 10.5H3.375C3.11611 10.5 2.90625 10.7099 2.90625 10.9688V14.7188C2.90625 14.9776 3.11611 15.1875 3.375 15.1875ZM3.84375 11.4375H6.65625V14.25H3.84375V11.4375Z" fill="#4B4B4B"/>
<path d="M16.875 15.1875H20.625C20.8839 15.1875 21.0938 14.9776 21.0938 14.7188V10.9688C21.0938 10.7099 20.8839 10.5 20.625 10.5H16.875C16.6161 10.5 16.4062 10.7099 16.4062 10.9688V14.7188C16.4062 14.9776 16.6161 15.1875 16.875 15.1875ZM17.3438 11.4375H20.1562V14.25H17.3438V11.4375Z" fill="#4B4B4B"/>
<path d="M3.375 21.2812H7.125C7.38389 21.2812 7.59375 21.0714 7.59375 20.8125V17.0625C7.59375 16.8036 7.38389 16.5938 7.125 16.5938H3.375C3.11611 16.5938 2.90625 16.8036 2.90625 17.0625V20.8125C2.90625 21.0714 3.11611 21.2812 3.375 21.2812ZM3.84375 17.5312H6.65625V20.3438H3.84375V17.5312Z" fill="#4B4B4B"/>
<path d="M16.875 21.2812H20.625C20.8839 21.2812 21.0938 21.0714 21.0938 20.8125V17.0625C21.0938 16.8036 20.8839 16.5938 20.625 16.5938H16.875C16.6161 16.5938 16.4062 16.8036 16.4062 17.0625V20.8125C16.4062 21.0714 16.6161 21.2812 16.875 21.2812ZM17.3438 17.5312H20.1562V20.3438H17.3438V17.5312Z" fill="#4B4B4B"/>
<path d="M10.125 15.1875H13.875C14.1339 15.1875 14.3438 14.9776 14.3438 14.7188V10.9688C14.3438 10.7099 14.1339 10.5 13.875 10.5H10.125C9.86611 10.5 9.65625 10.7099 9.65625 10.9688V14.7188C9.65625 14.9776 9.86611 15.1875 10.125 15.1875ZM10.5938 11.4375H13.4062V14.25H10.5938V11.4375Z" fill="#4B4B4B"/>
<path d="M10.125 21.2812H13.875C14.1339 21.2812 14.3438 21.0714 14.3438 20.8125V17.0625C14.3438 16.8036 14.1339 16.5938 13.875 16.5938H10.125C9.86611 16.5938 9.65625 16.8036 9.65625 17.0625V20.8125C9.65625 21.0714 9.86611 21.2812 10.125 21.2812ZM10.5938 17.5312H13.4062V20.3438H10.5938V17.5312Z" fill="#4B4B4B"/>
</g>
<defs>
<clipPath id="clip0_9_259">
<rect width="24" height="24" fill="white"/>
</clipPath>
</defs>
</svg>
