<svg width="20" height="20" viewBox="0 0 20 20" fill="none" xmlns="http://www.w3.org/2000/svg">
<path d="M9.99988 14.9358C8.60367 14.9358 7.46777 16.0717 7.46777 17.4679C7.46777 18.8641 8.60367 20 9.99988 20C11.3961 20 12.532 18.8641 12.532 17.4679C12.532 16.0717 11.3961 14.9358 9.99988 14.9358ZM9.99988 19.2032C9.04305 19.2032 8.26457 18.4248 8.26457 17.4679C8.26457 16.5111 9.04301 15.7326 9.99988 15.7326C10.9568 15.7326 11.7352 16.511 11.7352 17.4679C11.7352 18.4248 10.9567 19.2032 9.99988 19.2032Z" fill="#FF4B4B"/>
<path d="M11.2045 0H8.79539C8.06336 0 7.46777 0.595547 7.46777 1.32758V12.0244C7.46777 12.7564 8.06332 13.352 8.79535 13.352H11.2044C11.9364 13.352 12.532 12.7564 12.532 12.0243V1.32758C12.532 0.595547 11.9365 0 11.2045 0ZM11.7352 12.0243C11.7352 12.317 11.4971 12.5551 11.2045 12.5551H8.79543C8.50281 12.5551 8.26469 12.317 8.26469 12.0243V1.32758C8.26469 1.03496 8.50277 0.796836 8.79543 0.796836H11.2045C11.4971 0.796836 11.7352 1.03492 11.7352 1.32758V12.0243Z" fill="#FF4B4B"/>
<path d="M9.12398 6.255C8.90398 6.255 8.72559 6.4334 8.72559 6.6534V11.6733C8.72559 11.8933 8.90398 12.0717 9.12398 12.0717C9.34398 12.0717 9.52238 11.8933 9.52238 11.6733V6.6534C9.52238 6.4334 9.34398 6.255 9.12398 6.255Z" fill="#FF4B4B"/>
<path d="M9.12398 4.74109C8.90398 4.74109 8.72559 4.91949 8.72559 5.13949V5.4582C8.72559 5.6782 8.90398 5.8566 9.12398 5.8566C9.34398 5.8566 9.52238 5.6782 9.52238 5.4582V5.13949C9.52238 4.91949 9.34398 4.74109 9.12398 4.74109Z" fill="#FF4B4B"/>
</svg>
