<svg width="21" height="20" viewBox="0 0 21 20" fill="none" xmlns="http://www.w3.org/2000/svg">
<g clip-path="url(#clip0_14_653)">
<path d="M9.2883 9.99952L15.9097 3.37812C16.2836 3.00425 16.4895 2.50714 16.4895 1.97847C16.4895 1.44976 16.2836 0.952686 15.9097 0.578818C15.1379 -0.1929 13.8822 -0.192979 13.1104 0.578818L5.08932 8.59991C4.31756 9.37167 4.31756 10.6274 5.08932 11.3992L13.1104 19.4203C13.4843 19.7941 13.9813 20 14.51 20C15.0387 20 15.5358 19.7941 15.9097 19.4203C16.2835 19.0464 16.4895 18.5494 16.4895 18.0207C16.4895 17.4919 16.2836 16.9949 15.9097 16.621L9.2883 9.99952ZM15.3462 18.8568C15.1229 19.0801 14.8258 19.2032 14.51 19.2032C14.1942 19.2032 13.8972 19.0801 13.6739 18.8568L5.65279 10.8357C5.19174 10.3746 5.19174 9.6244 5.65279 9.16335L13.6739 1.14226C13.9044 0.911748 14.2072 0.796436 14.5101 0.796436C14.8129 0.796436 15.1157 0.911748 15.3462 1.14229C15.5696 1.36565 15.6926 1.66261 15.6926 1.97847C15.6926 2.29433 15.5696 2.59132 15.3462 2.81468L8.44311 9.7178C8.28752 9.87343 8.28752 10.1257 8.44311 10.2813L15.3462 17.1844C15.5696 17.4078 15.6926 17.7048 15.6926 18.0206C15.6926 18.3364 15.5696 18.6334 15.3462 18.8568Z" fill="white"/>
<path d="M7.35548 8.57367C7.20099 8.41688 6.94872 8.41512 6.79204 8.56957L6.23548 9.11813C6.07872 9.27258 6.07689 9.52489 6.23138 9.68157C6.30935 9.76067 6.41228 9.80028 6.51517 9.80028C6.61618 9.80028 6.7172 9.76211 6.79482 9.68567L7.35138 9.13711C7.50814 8.98266 7.50997 8.73039 7.35548 8.57367Z" fill="white"/>
<path d="M14.5508 1.47243C14.3963 1.31567 14.144 1.31395 13.9874 1.46837L7.83724 7.5302C7.68052 7.68466 7.67872 7.93696 7.83317 8.09364C7.91114 8.17274 8.01407 8.21235 8.11696 8.21235C8.21794 8.21235 8.31899 8.17419 8.39661 8.0977L14.5467 2.03591C14.7034 1.88141 14.7053 1.62919 14.5508 1.47243Z" fill="white"/>
</g>
<defs>
<clipPath id="clip0_14_653">
<rect width="20" height="20" fill="white" transform="translate(0.5)"/>
</clipPath>
</defs>
</svg>
