<svg width="21" height="20" viewBox="0 0 21 20" fill="none" xmlns="http://www.w3.org/2000/svg">
<g clip-path="url(#clip0_44_549)">
<path d="M19.2261 3.48163H1.77391C1.07148 3.48163 0.5 4.05311 0.5 4.75553V15.2444C0.5 15.9469 1.07148 16.5183 1.77391 16.5183H19.2261C19.9285 16.5183 20.5 15.9469 20.5 15.2444V4.75553C20.5 4.05311 19.9285 3.48163 19.2261 3.48163ZM19.6507 15.2444C19.6507 15.4785 19.4602 15.6691 19.2261 15.6691H1.77391C1.53977 15.6691 1.34926 15.4785 1.34926 15.2444V4.7555C1.34926 4.52136 1.53977 4.33085 1.77391 4.33085H19.2261C19.4602 4.33085 19.6507 4.52136 19.6507 4.7555V15.2444Z" fill="white"/>
<path d="M16.9887 7.20728H12.4315C12.197 7.20728 12.0068 7.39743 12.0068 7.63192C12.0068 7.86646 12.197 8.05657 12.4315 8.05657H16.9887C17.2232 8.05657 17.4134 7.86646 17.4134 7.63192C17.4134 7.39743 17.2232 7.20728 16.9887 7.20728Z" fill="white"/>
<path d="M16.9887 9.57535H12.4315C12.197 9.57535 12.0068 9.76547 12.0068 10C12.0068 10.2345 12.197 10.4246 12.4315 10.4246H16.9887C17.2232 10.4246 17.4134 10.2345 17.4134 10C17.4134 9.76547 17.2232 9.57535 16.9887 9.57535Z" fill="white"/>
<path d="M16.9887 11.9435H12.4315C12.197 11.9435 12.0068 12.1336 12.0068 12.3681C12.0068 12.6026 12.197 12.7927 12.4315 12.7927H16.9887C17.2232 12.7927 17.4134 12.6026 17.4134 12.3681C17.4134 12.1336 17.2232 11.9435 16.9887 11.9435Z" fill="white"/>
<path d="M8.34207 11.3376C8.33348 11.337 7.55629 11.3694 7.34637 10.5286C7.63 10.3054 7.86801 9.99518 8.03809 9.62471C8.05066 9.62596 8.06324 9.62752 8.07574 9.62752C8.19152 9.62748 8.30363 9.57475 8.37731 9.4801C8.73391 9.02209 8.91934 8.42741 8.89949 7.80557C8.85824 6.51635 7.96133 5.50002 6.85605 5.48807C6.82582 5.48686 6.79891 5.48764 6.77715 5.48842C6.77664 5.48842 6.77613 5.48846 6.77559 5.48846C6.50742 5.37225 6.22492 5.3178 5.93379 5.32737C5.31145 5.34725 4.74043 5.65553 4.32605 6.19545C3.92898 6.71276 3.7227 7.38588 3.74523 8.09104C3.74906 8.21034 3.75852 8.32034 3.77367 8.42456C3.8148 8.72479 3.89762 9.0126 4.0198 9.27991C4.07852 9.40838 4.20336 9.49405 4.34445 9.50249C4.38285 9.50495 4.42055 9.501 4.4568 9.49229C4.62973 9.92092 4.89102 10.2776 5.20703 10.5266C5.00129 11.366 4.21953 11.3371 4.21098 11.3377C3.37547 11.365 2.7041 12.0527 2.7041 12.8947V14.4421C2.7041 14.6532 2.8752 14.8243 3.08629 14.8243H9.46672C9.67781 14.8243 9.84891 14.6532 9.84891 14.4421V12.8947C9.84895 12.0526 9.17754 11.3649 8.34207 11.3376ZM4.53566 8.35264C4.53391 8.34096 4.53223 8.3292 4.53059 8.31745C4.51918 8.23885 4.51219 8.1567 4.5093 8.06643C4.49234 7.53745 4.64262 7.03827 4.93246 6.66077C5.2048 6.30588 5.56922 6.10366 5.95832 6.0912C5.97117 6.09077 6.2766 6.06659 6.53352 6.21842C6.5873 6.25022 6.6532 6.25971 6.71535 6.25819C6.7232 6.25799 6.83773 6.25221 6.84352 6.25225C7.52828 6.25674 8.10797 6.96448 8.13562 7.82991C8.13883 7.92905 8.13484 8.02702 8.12406 8.12284C7.87113 7.6887 7.49543 7.35252 7.04832 7.16452C6.95223 7.12416 6.84379 7.12475 6.74816 7.1662C6.6525 7.20768 6.57797 7.28647 6.5418 7.38424C6.5123 7.46401 6.47645 7.54174 6.43531 7.61538C6.33496 7.79483 6.12965 7.90065 5.89953 7.89342C5.85375 7.89186 5.8075 7.89178 5.76199 7.89323C5.53805 7.90041 5.31965 7.94311 5.11133 8.02073C4.90324 8.09932 4.70984 8.21088 4.53566 8.35264ZM5.06828 8.90737C5.16512 8.83581 5.27152 8.78288 5.37984 8.73647C5.57734 8.65178 5.84422 8.65639 5.87309 8.65741C6.36539 8.67413 6.8148 8.44377 7.06488 8.05135C7.25988 8.20077 7.42094 8.40202 7.53328 8.64049C7.41492 9.49819 6.88113 10.1507 6.27543 10.1507C5.73504 10.1507 5.25004 9.63956 5.06828 8.90737ZM5.90809 10.872C6.0277 10.9002 6.15047 10.915 6.27543 10.915C6.40156 10.915 6.52508 10.9001 6.64508 10.8721C6.76824 11.2654 7.02695 11.5991 7.36594 11.8191C7.20289 12.2678 6.77152 12.5824 6.27656 12.5824C5.7816 12.5824 5.35023 12.2678 5.18715 11.8191C5.52621 11.599 5.78492 11.2653 5.90809 10.872ZM3.46852 14.0599V12.8947C3.46852 12.4568 3.82473 12.1006 4.26258 12.1006C4.27133 12.1006 4.41074 12.0926 4.47047 12.0846C4.74258 12.8269 5.45707 13.3467 6.27652 13.3467C7.09598 13.3467 7.81047 12.8269 8.08258 12.0846C8.14238 12.0926 8.28168 12.1006 8.29043 12.1006C8.72832 12.1006 9.08449 12.4569 9.08449 12.8947V14.0599H3.46852Z" fill="white"/>
</g>
<defs>
<clipPath id="clip0_44_549">
<rect width="20" height="20" fill="white" transform="translate(0.5)"/>
</clipPath>
</defs>
</svg>
