<svg width="24" height="24" viewBox="0 0 24 24" fill="none" xmlns="http://www.w3.org/2000/svg">
<g clip-path="url(#clip0_8_136)">
<path d="M19.3125 6.37501C19.3125 6.63373 19.5225 6.84376 19.7812 6.84376C20.04 6.84376 20.25 6.63373 20.25 6.37501C20.25 6.11628 20.04 5.90626 19.7812 5.90626C19.5225 5.90626 19.3125 6.11628 19.3125 6.37501Z" fill="white"/>
<path d="M21.1874 12C21.1874 12.6004 21.1271 13.1997 21.0085 13.7812C20.9566 14.0348 21.1203 14.2824 21.3739 14.3342C21.4056 14.3408 21.4371 14.3439 21.4682 14.3439C21.6863 14.3439 21.8817 14.1907 21.9271 13.9687C22.0584 13.3255 22.1249 12.6632 22.1249 12C22.1249 10.524 21.8048 9.10364 21.1733 7.77832C21.0619 7.54468 20.7823 7.44544 20.5485 7.55677C20.3147 7.6681 20.2156 7.94788 20.3269 8.18171C20.8979 9.37995 21.1874 10.6646 21.1874 12Z" fill="white"/>
<path d="M14.3437 16.2187H13.875V10.125C13.875 9.86609 13.6652 9.65625 13.4062 9.65625H9.65625C9.39734 9.65625 9.1875 9.86609 9.1875 10.125V12C9.1875 12.2589 9.39734 12.4687 9.65625 12.4687H10.125V16.2187H9.65625C9.39734 16.2187 9.1875 16.4286 9.1875 16.6875V18.5625C9.1875 18.8214 9.39734 19.0312 9.65625 19.0312H14.3437C14.6027 19.0312 14.8125 18.8214 14.8125 18.5625V16.6875C14.8125 16.4286 14.6027 16.2187 14.3437 16.2187ZM13.875 18.0937H10.125V17.1562H10.5937C10.8527 17.1562 11.0625 16.9464 11.0625 16.6875V12C11.0625 11.7411 10.8527 11.5312 10.5937 11.5312H10.125V10.5937H12.9375V16.6875C12.9375 16.9464 13.1475 17.1562 13.4062 17.1562H13.875V18.0937Z" fill="white"/>
<path d="M12 8.71875C13.0338 8.71875 13.875 7.87757 13.875 6.84376C13.875 5.80994 13.0338 4.96876 12 4.96876C10.9662 4.96876 10.125 5.80994 10.125 6.84376C10.125 7.87757 10.9662 8.71875 12 8.71875ZM12 5.90626C12.5169 5.90626 12.9375 6.32685 12.9375 6.84376C12.9375 7.36066 12.5169 7.78125 12 7.78125C11.4831 7.78125 11.0625 7.36066 11.0625 6.84376C11.0625 6.32685 11.4831 5.90626 12 5.90626Z" fill="white"/>
<path d="M12 2.28882e-05C5.53236 2.28882e-05 2.04412e-05 5.52193 2.04412e-05 12C2.04412e-05 14.2128 0.634114 16.5661 1.70327 18.3461L0.0240072 23.3831C-0.032023 23.5514 0.0117392 23.7372 0.137349 23.8627C0.263509 23.9888 0.449544 24.0319 0.617085 23.9758L5.65413 22.2967C7.43391 23.3661 9.78718 24 12 24C18.4693 24 24 18.4774 24 12C24 5.53072 18.4775 2.28882e-05 12 2.28882e-05ZM12 23.0625C9.87727 23.0625 7.62104 22.4361 5.96449 21.3869C5.84712 21.3126 5.70082 21.293 5.56532 21.3382L1.20998 22.79L2.66182 18.4347C2.7065 18.301 2.68855 18.1545 2.61312 18.0355C1.56392 16.3792 0.937519 14.1227 0.937519 12C0.937519 6.00349 6.00349 0.937522 12 0.937522C17.9965 0.937522 23.0625 6.00349 23.0625 12C23.0625 17.9965 17.9965 23.0625 12 23.0625Z" fill="white"/>
</g>
<defs>
<clipPath id="clip0_8_136">
<rect width="24" height="24" fill="white"/>
</clipPath>
</defs>
</svg>
