<svg width="24" height="24" viewBox="0 0 24 24" fill="none" xmlns="http://www.w3.org/2000/svg">
<g clip-path="url(#clip0_47_873)">
<path d="M20.4853 3.51478C18.2188 1.24819 15.2054 0 12 0C8.79464 0 5.78123 1.24819 3.51478 3.51478C1.24819 5.78123 0 8.79464 0 12C0 15.2054 1.24819 18.2188 3.51478 20.4853C5.78123 22.7518 8.79464 24 12 24C15.2054 24 18.2188 22.7518 20.4853 20.4853C22.7518 18.2188 24 15.2054 24 12C24 8.79464 22.7518 5.78123 20.4853 3.51478ZM12 23.0438C5.91042 23.0438 0.956156 18.0896 0.956156 12C0.956156 5.91037 5.91042 0.956156 12 0.956156C18.0896 0.956156 23.0438 5.91042 23.0438 12C23.0438 18.0896 18.0896 23.0438 12 23.0438Z" fill="#22262A"/>
<path d="M21.6625 13.9749C21.4064 13.9096 21.1463 14.0643 21.0813 14.3202C20.8146 15.3674 20.3707 16.3535 19.7621 17.2512C19.6139 17.4698 19.671 17.767 19.8896 17.9153C19.9717 17.9709 20.0651 17.9977 20.1574 17.9977C20.3106 17.9977 20.4612 17.9242 20.5536 17.7878C21.2245 16.7982 21.7138 15.7109 22.0078 14.5562C22.073 14.3003 21.9184 14.04 21.6625 13.9749Z" fill="#22262A"/>
<path d="M21.8487 11.522C21.5847 11.522 21.3706 11.7361 21.3706 12.0001C21.3706 12.1367 21.3676 12.2745 21.3618 12.4097C21.3503 12.6735 21.555 12.8966 21.8188 12.908C21.8258 12.9083 21.8328 12.9084 21.8398 12.9084C22.0943 12.9084 22.3059 12.7077 22.3171 12.451C22.3235 12.3021 22.3268 12.1504 22.3268 12.0001C22.3268 11.7361 22.1127 11.522 21.8487 11.522Z" fill="#22262A"/>
<path d="M12 8.10352C11.0773 8.10352 10.3267 8.85417 10.3267 9.77681V18.0955C10.3267 19.0182 11.0773 19.7688 12 19.7688C12.9226 19.7688 13.6733 19.0182 13.6733 18.0955V9.77681C13.6733 8.85413 12.9226 8.10352 12 8.10352ZM12.7171 18.0955C12.7171 18.491 12.3954 18.8127 12 18.8127C11.6045 18.8127 11.2828 18.491 11.2828 18.0955V9.77681C11.2828 9.38138 11.6045 9.05967 12 9.05967C12.3954 9.05967 12.7171 9.38138 12.7171 9.77681V18.0955Z" fill="#22262A"/>
<path d="M13.1828 4.72052C12.871 4.40936 12.4398 4.23096 12 4.23096C11.56 4.23096 11.1288 4.40936 10.8166 4.72094C10.5052 5.03238 10.3267 5.46363 10.3267 5.90425C10.3267 6.34413 10.5051 6.77533 10.817 7.08789C11.1288 7.3991 11.56 7.57755 12 7.57755C12.4399 7.57755 12.8711 7.3991 13.1836 7.08719C13.4948 6.77538 13.6733 6.34418 13.6733 5.90425C13.6733 5.46363 13.4947 5.03233 13.1828 4.72052ZM12.5075 6.41111C12.3735 6.54471 12.1885 6.62139 12 6.62139C11.8112 6.62139 11.6263 6.54471 11.4931 6.41186C11.3595 6.27789 11.2828 6.09288 11.2828 5.9043C11.2828 5.7153 11.3594 5.53043 11.4923 5.39744C11.6263 5.26385 11.8113 5.18716 12 5.18716C12.1886 5.18716 12.3736 5.26385 12.5071 5.39707C12.6406 5.53052 12.7171 5.71535 12.7171 5.90425C12.7171 6.09293 12.6404 6.27789 12.5075 6.41111Z" fill="#22262A"/>
</g>
<defs>
<clipPath id="clip0_47_873">
<rect width="24" height="24" fill="white"/>
</clipPath>
</defs>
</svg>
