<svg width="24" height="24" viewBox="0 0 24 24" fill="none" xmlns="http://www.w3.org/2000/svg">
<g clip-path="url(#clip0_15_915)">
<path d="M13.9268 4.54504C14.3033 4.10303 14.5312 3.53082 14.5312 2.90625V2.53125C14.5312 1.13562 13.3958 0 12 0C10.6042 0 9.46875 1.13562 9.46875 2.53125V2.90625C9.46875 3.53082 9.69672 4.10303 10.0732 4.54504C8.35162 4.81805 7.03125 6.31219 7.03125 8.10938V13.4222C7.03125 14.2491 7.70398 14.9218 8.53088 14.9218C8.72992 14.9218 8.9198 14.8826 9.09375 14.812V22.3125C9.09375 23.243 9.85071 24 10.7812 24C11.2601 24 11.6926 23.7993 12 23.4778C12.3074 23.7993 12.7399 24 13.2188 24C14.1493 24 14.9062 23.243 14.9062 22.3125V19.9063C14.9062 19.6474 14.6964 19.4376 14.4375 19.4376C14.1786 19.4376 13.9688 19.6474 13.9688 19.9063V22.3125C13.9688 22.726 13.6322 23.0625 13.2188 23.0625C12.8053 23.0625 12.4688 22.726 12.4688 22.3125V14.6664C12.4688 14.4075 12.2589 14.1976 12 14.1976C11.7411 14.1976 11.5312 14.4075 11.5312 14.6664V22.3125C11.5312 22.726 11.1947 23.0625 10.7812 23.0625C10.3678 23.0625 10.0312 22.726 10.0312 22.3125V12.8571H13.9649V13.4222C13.9649 13.4566 13.9664 13.4908 13.9688 13.5249V16.0937C13.9688 16.3526 14.1786 16.5624 14.4375 16.5624C14.6964 16.5624 14.9062 16.3526 14.9062 16.0937V14.8129C15.0802 14.883 15.2699 14.9218 15.4691 14.9218C16.296 14.9218 16.9688 14.2491 16.9688 13.4222V8.10938C16.9688 6.31219 15.6484 4.81805 13.9268 4.54504ZM10.4062 2.53125C10.4062 1.65253 11.1213 0.9375 12 0.9375C12.8787 0.9375 13.5938 1.65253 13.5938 2.53125V2.90625C13.5938 3.78497 12.8787 4.5 12 4.5C11.1213 4.5 10.4062 3.78497 10.4062 2.90625V2.53125ZM16.0312 13.4222C16.0312 13.7322 15.7791 13.9843 15.4645 13.9843C15.1761 13.9843 14.9381 13.7661 14.9062 13.4861V8.25C14.9062 7.99109 14.6964 7.78125 14.4375 7.78125C14.1786 7.78125 13.9688 7.99109 13.9688 8.25V10.372C13.9664 10.3909 13.9649 10.4101 13.9649 10.4297V11.9196H10.0312V8.25C10.0312 7.99109 9.82141 7.78125 9.5625 7.78125C9.30359 7.78125 9.09375 7.99109 9.09375 8.25V10.4189C9.09357 10.4225 9.0932 10.426 9.0932 10.4297V13.4222C9.0932 13.7322 8.84106 13.9843 8.53088 13.9843C8.22089 13.9843 7.96875 13.7322 7.96875 13.4222V8.10938C7.96875 6.63611 9.16736 5.4375 10.6406 5.4375H13.3594C14.8326 5.4375 16.0312 6.63611 16.0312 8.10938V13.4222Z" fill="#22262A"/>
<path d="M14.4375 17.5627C14.3143 17.5627 14.1932 17.6124 14.1061 17.7001C14.0189 17.7872 13.9688 17.9077 13.9688 18.0315C13.9688 18.1547 14.0189 18.2756 14.1061 18.3627C14.1932 18.4499 14.3143 18.5002 14.4375 18.5002C14.5607 18.5002 14.6818 18.4501 14.7689 18.3627C14.8561 18.2756 14.9062 18.1547 14.9062 18.0315C14.9062 17.9077 14.8561 17.7872 14.7689 17.7001C14.6818 17.6124 14.5607 17.5627 14.4375 17.5627Z" fill="#22262A"/>
</g>
<defs>
<clipPath id="clip0_15_915">
<rect width="24" height="24" fill="white"/>
</clipPath>
</defs>
</svg>
