<svg width="20" height="20" viewBox="0 0 20 20" fill="none" xmlns="http://www.w3.org/2000/svg">
<path d="M15.5798 5.41469L10.2818 0.11668C10.2071 0.0419922 10.1058 0 10.0001 0C9.89445 0 9.79308 0.0419922 9.71835 0.11668L4.42038 5.41469C4.30648 5.52863 4.27238 5.7 4.33406 5.84887C4.39574 5.9977 4.54105 6.0948 4.70214 6.0948H7.49253V19.6016C7.49253 19.8216 7.67089 20 7.89093 20H12.1093C12.3294 20 12.5077 19.8216 12.5077 19.6016V6.0948H15.2981C15.4593 6.0948 15.6045 5.9977 15.6662 5.84887C15.7278 5.7 15.6938 5.52863 15.5798 5.41469ZM12.1094 5.29801C11.8893 5.29801 11.711 5.47641 11.711 5.69641V19.2032H8.28933L8.28929 5.69641C8.28929 5.47641 8.11093 5.29801 7.89089 5.29801H5.66398L10.0001 0.961875L14.3363 5.29801H12.1094Z" fill="white"/>
<path d="M10.8369 13.7755C10.6168 13.7755 10.4385 13.9539 10.4385 14.1739V18.2594C10.4385 18.4794 10.6168 18.6578 10.8369 18.6578C11.0569 18.6578 11.2353 18.4794 11.2353 18.2594V14.1739C11.2353 13.9539 11.0569 13.7755 10.8369 13.7755Z" fill="white"/>
<path d="M10.8369 12.2311C10.6168 12.2311 10.4385 12.4095 10.4385 12.6295V12.8809C10.4385 13.1009 10.6168 13.2793 10.8369 13.2793C11.0569 13.2793 11.2353 13.1009 11.2353 12.8809V12.6295C11.2353 12.4095 11.0569 12.2311 10.8369 12.2311Z" fill="white"/>
</svg>
