<svg width="24" height="24" viewBox="0 0 24 24" fill="none" xmlns="http://www.w3.org/2000/svg">
<g clip-path="url(#clip0_15_886)">
<path d="M17.9869 12.0658L16.86 6.69893C16.5868 5.39759 15.4236 4.45313 14.0938 4.45313H13.9741C14.328 4.01771 14.5406 3.46308 14.5406 2.85938V2.48438C14.5406 1.08875 13.4052 -0.046875 12.0094 -0.046875C10.6137 -0.046875 9.47812 1.08875 9.47812 2.48438V2.85938C9.47812 3.46308 9.69088 4.01771 10.0448 4.45313H9.92508C8.59536 4.45313 7.43191 5.39759 7.15871 6.69893L6.03206 12.0658C5.9396 12.5067 6.04928 12.9602 6.33327 13.31C6.61727 13.6597 7.0386 13.8604 7.48904 13.8604C7.57198 13.8604 7.65383 13.8531 7.73385 13.8395L7.20724 16.2596C7.17721 16.3982 7.21127 16.5431 7.30026 16.6535C7.38924 16.7639 7.52346 16.8282 7.66537 16.8282H11.5406V22.3594C11.5406 22.7212 11.2464 23.0157 10.8844 23.0157C10.5226 23.0157 10.2281 22.7212 10.2281 22.3594V20.1094C10.2281 19.8505 10.0183 19.6407 9.75937 19.6407C9.50045 19.6407 9.29062 19.8505 9.29062 20.1094V22.3594C9.29062 23.2381 10.0056 23.9532 10.8844 23.9532C11.3231 23.9532 11.721 23.7748 12.0094 23.4872C12.2979 23.775 12.6957 23.9532 13.1344 23.9532C14.0133 23.9532 14.7281 23.2381 14.7281 22.3594V16.8282H16.3536C16.4955 16.8282 16.6295 16.7639 16.7187 16.6535C16.8075 16.5431 16.8417 16.3982 16.8117 16.2598L16.2851 13.8397C16.3651 13.8532 16.4469 13.8604 16.5299 13.8604C16.9803 13.8604 17.4017 13.6599 17.6857 13.31C17.9696 12.9602 18.0793 12.5067 17.9869 12.0658ZM10.4156 2.85938V2.48438C10.4156 1.60566 11.1306 0.890627 12.0094 0.890627C12.8883 0.890627 13.6031 1.60566 13.6031 2.48438V2.85938C13.6031 3.73811 12.8883 4.45313 12.0094 4.45313C11.1306 4.45313 10.4156 3.73811 10.4156 2.85938ZM13.7906 22.3594C13.7906 22.7212 13.4964 23.0157 13.1344 23.0157C12.7726 23.0157 12.4781 22.7212 12.4781 22.3594V16.8282H13.7906V22.3594ZM16.9578 12.7191C16.8527 12.8485 16.6967 12.9229 16.5299 12.9229C16.2723 12.9229 16.0458 12.7401 15.9912 12.4886L15.991 12.4878C15.991 12.4878 15.991 12.4878 15.991 12.4876L15.0315 8.05629C14.9768 7.80342 14.7272 7.64284 14.4742 7.6974C14.2211 7.75233 14.0603 8.00173 14.1153 8.25478L15.7718 15.8907H8.24691L8.944 12.6872C8.944 12.687 9.90365 8.25478 9.90365 8.25478C9.9584 8.00173 9.79782 7.75215 9.54477 7.6974C9.29153 7.64265 9.04214 7.80342 8.98739 8.05629L8.02792 12.4876V12.4878L8.02773 12.4886C7.97317 12.7401 7.74667 12.9229 7.48904 12.9229C7.32223 12.9229 7.16622 12.8485 7.06112 12.7191C6.95602 12.5894 6.91537 12.4215 6.94961 12.2584L8.07626 6.89155C8.25881 6.0218 9.03628 5.39064 9.92508 5.39064H14.0938C14.9825 5.39064 15.7599 6.0218 15.9427 6.89155L17.0693 12.2584C17.1036 12.4217 17.0629 12.5896 16.9578 12.7191Z" fill="#22262A"/>
<path d="M9.75928 18.7032C9.88269 18.7032 10.0035 18.653 10.0907 18.5658C10.1779 18.4787 10.228 18.3576 10.228 18.2344C10.228 18.1112 10.1779 17.9902 10.0907 17.903C10.0035 17.8158 9.88306 17.7657 9.75928 17.7657C9.6355 17.7657 9.5152 17.8158 9.42786 17.903C9.3407 17.9902 9.29053 18.1112 9.29053 18.2344C9.29053 18.3576 9.3407 18.4787 9.42786 18.5658C9.5152 18.653 9.63605 18.7032 9.75928 18.7032Z" fill="#22262A"/>
</g>
<defs>
<clipPath id="clip0_15_886">
<rect width="24" height="24" fill="white"/>
</clipPath>
</defs>
</svg>
